<svg xmlns="http://www.w3.org/2000/svg" xmlns:xlink="http://www.w3.org/1999/xlink" width="500" zoomAndPan="magnify" viewBox="0 0 375 374.999991" height="500" preserveAspectRatio="xMidYMid meet" version="1.0"><defs><g/><clipPath id="5fb28eb7b7"><path d="M 143 65.300781 L 160 65.300781 L 160 87 L 143 87 Z M 143 65.300781 " clip-rule="nonzero"/></clipPath><clipPath id="7688c475a2"><path d="M 122.027344 128 L 145 128 L 145 150 L 122.027344 150 Z M 122.027344 128 " clip-rule="nonzero"/></clipPath><clipPath id="62742539bb"><path d="M 122.027344 128 L 145 128 L 145 149 L 122.027344 149 Z M 122.027344 128 " clip-rule="nonzero"/></clipPath><clipPath id="bc3334d4aa"><path d="M 215 65.300781 L 232 65.300781 L 232 87 L 215 87 Z M 215 65.300781 " clip-rule="nonzero"/></clipPath><clipPath id="bba76b3870"><path d="M 215 65.300781 L 233 65.300781 L 233 87 L 215 87 Z M 215 65.300781 " clip-rule="nonzero"/></clipPath><clipPath id="e37d7ffb6e"><path d="M 237 113 L 253.277344 113 L 253.277344 138 L 237 138 Z M 237 113 " clip-rule="nonzero"/></clipPath></defs><g fill="#ffffff" fill-opacity="1"><g transform="translate(10.009341, 268.945029)"><g><path d="M 51.839844 0 L 33.242188 0 L 4.539062 -85.960938 C 2.636719 -91.378906 0.144531 -94.164062 -3.515625 -95.773438 L -3.515625 -97.675781 L 32.070312 -97.675781 L 32.070312 -95.773438 C 29.140625 -94.601562 27.675781 -92.699219 27.675781 -90.207031 C 27.675781 -88.890625 27.96875 -87.574219 28.554688 -85.960938 L 51.402344 -16.546875 L 73.222656 -85.960938 C 73.515625 -86.988281 73.660156 -88.011719 73.660156 -89.035156 C 73.660156 -92.699219 71.609375 -94.457031 65.3125 -95.773438 L 65.3125 -97.675781 L 89.769531 -97.675781 L 89.769531 -95.773438 C 84.496094 -94.164062 81.421875 -91.378906 79.519531 -85.960938 Z M 51.839844 0 "/></g></g></g><g fill="#ffffff" fill-opacity="1"><g transform="translate(95.8245, 268.945029)"><g><path d="M 18.304688 -98.996094 C 25.773438 -98.996094 30.167969 -95.773438 30.167969 -90.5 C 30.167969 -85.230469 25.628906 -82.007812 18.011719 -82.007812 C 10.835938 -82.007812 6.296875 -85.375 6.296875 -90.792969 C 6.296875 -95.917969 10.835938 -98.996094 18.304688 -98.996094 Z M 4.6875 -58.285156 L 4.6875 -61.503906 C 16.109375 -64.289062 17.574219 -64.582031 27.238281 -69.265625 L 30.3125 -69.265625 L 30.3125 -9.957031 C 30.3125 -5.417969 31.191406 -3.660156 34.265625 -1.902344 L 34.265625 0 L 4.832031 0 L 4.832031 -1.902344 C 7.90625 -3.660156 8.785156 -5.417969 8.785156 -9.957031 L 8.785156 -51.839844 C 8.785156 -56.085938 7.761719 -57.550781 4.6875 -58.285156 Z M 4.6875 -58.285156 "/></g></g></g><g fill="#ffffff" fill-opacity="1"><g transform="translate(134.924579, 268.945029)"><g><path d="M 29.726562 -52.867188 L 29.726562 -9.957031 C 29.726562 -5.417969 30.605469 -3.660156 33.683594 -1.902344 L 33.683594 0 L 4.246094 0 L 4.246094 -1.902344 C 7.320312 -3.660156 8.199219 -5.417969 8.199219 -9.957031 L 8.199219 -51.839844 C 8.199219 -56.085938 7.320312 -57.550781 4.246094 -58.285156 L 4.246094 -61.503906 C 15.230469 -64.289062 16.988281 -64.582031 26.507812 -69.265625 L 29.726562 -69.265625 L 29.726562 -57.699219 C 34.851562 -65.753906 39.394531 -68.828125 45.691406 -68.828125 C 50.816406 -68.828125 54.621094 -65.3125 54.621094 -60.628906 C 54.621094 -55.941406 51.253906 -52.425781 46.570312 -52.425781 C 43.933594 -52.425781 43.640625 -52.425781 39.394531 -55.5 C 38.367188 -56.234375 37.34375 -56.527344 36.171875 -56.527344 C 33.683594 -56.527344 31.632812 -55.355469 29.726562 -52.867188 Z M 29.726562 -52.867188 "/></g></g></g><g fill="#ffffff" fill-opacity="1"><g transform="translate(186.618694, 268.945029)"><g><path d="M 41.003906 -61.945312 L 30.3125 -61.945312 L 30.3125 -11.277344 C 30.3125 -7.46875 31.484375 -5.566406 33.972656 -5.566406 C 35.730469 -5.566406 37.488281 -6.738281 39.394531 -8.933594 L 42.175781 -6.738281 C 36.464844 -0.730469 31.925781 1.464844 24.75 1.464844 C 19.917969 1.464844 14.9375 -0.144531 12.007812 -2.488281 C 9.8125 -4.394531 8.785156 -7.320312 8.785156 -11.421875 L 8.785156 -61.945312 L 0.730469 -61.945312 L 0.730469 -66.632812 C 12.449219 -71.316406 20.941406 -79.371094 26.800781 -91.671875 L 30.3125 -91.671875 L 30.3125 -66.632812 L 41.003906 -66.632812 Z M 41.003906 -61.945312 "/></g></g></g><g fill="#ffffff" fill-opacity="1"><g transform="translate(229.379835, 268.945029)"><g><path d="M 46.421875 0 L 46.421875 -10.542969 C 33.683594 -1.316406 27.824219 1.464844 20.5 1.464844 C 12.15625 1.464844 8.054688 -3.074219 8.054688 -12.300781 L 8.054688 -51.839844 C 8.054688 -55.941406 7.175781 -57.550781 4.101562 -58.285156 L 4.101562 -61.503906 C 15.082031 -64.289062 16.839844 -64.582031 26.359375 -69.265625 L 29.582031 -69.265625 L 29.582031 -16.402344 C 29.582031 -11.863281 31.339844 -9.371094 34.265625 -9.371094 C 37.636719 -9.371094 41.003906 -11.128906 46.421875 -15.667969 L 46.421875 -51.839844 C 46.421875 -56.085938 45.542969 -57.550781 42.46875 -58.285156 L 42.46875 -61.503906 C 53.597656 -64.289062 55.207031 -64.582031 64.875 -69.265625 L 67.949219 -69.265625 L 67.949219 -9.957031 C 67.949219 -5.417969 68.828125 -3.660156 71.902344 -1.902344 L 71.902344 0 Z M 46.421875 0 "/></g></g></g><g fill="#ffffff" fill-opacity="1"><g transform="translate(305.529814, 268.945029)"><g><path d="M 49.058594 -47.59375 L 46.128906 -48.472656 C 46.277344 -49.203125 46.277344 -49.644531 46.277344 -50.082031 L 46.277344 -51.402344 C 46.277344 -58.871094 39.980469 -64.726562 31.925781 -64.726562 C 25.921875 -64.726562 21.671875 -61.066406 21.671875 -55.792969 C 21.671875 -51.402344 25.628906 -47.15625 33.683594 -43.054688 C 48.617188 -35.585938 49.789062 -34.558594 53.304688 -31.046875 C 56.378906 -27.382812 57.699219 -24.308594 57.699219 -19.769531 C 57.699219 -7.613281 46.128906 1.464844 30.3125 1.464844 C 21.378906 1.464844 14.789062 -0.4375 2.34375 -7.46875 L 6.738281 -22.992188 L 9.664062 -22.113281 C 9.519531 -21.527344 9.519531 -20.941406 9.519531 -20.5 L 9.519531 -19.476562 C 9.519531 -10.691406 16.988281 -3.222656 25.921875 -3.222656 C 32.511719 -3.222656 37.195312 -7.175781 37.195312 -12.886719 C 37.195312 -15.667969 36.023438 -18.160156 33.535156 -20.0625 C 31.632812 -21.964844 31.339844 -21.820312 19.625 -28.117188 C 9.664062 -33.242188 4.246094 -40.417969 4.246094 -48.179688 C 4.246094 -60.335938 15.375 -68.828125 30.605469 -68.828125 C 37.78125 -68.828125 42.761719 -67.21875 53.453125 -62.53125 Z M 49.058594 -47.59375 "/></g></g></g><path fill="#f68833" d="M 177.625 165.835938 C 177.625 165.835938 189.164062 168.347656 199.242188 165.246094 C 199.804688 166.601562 199.242188 169.09375 199.242188 169.09375 C 199.242188 169.09375 189.214844 173.140625 177.25 169.566406 C 165.28125 165.996094 177.625 165.835938 177.625 165.835938 " fill-opacity="1" fill-rule="nonzero"/><path fill="#f68833" d="M 143.949219 86.261719 C 143.839844 86.238281 143.574219 86.597656 143.167969 87.292969 C 142.96875 87.640625 142.730469 88.074219 142.460938 88.582031 C 142.207031 89.101562 141.925781 89.699219 141.617188 90.375 C 140.402344 93.070312 138.925781 97.035156 137.71875 101.941406 C 136.515625 106.84375 135.632812 112.6875 135.296875 118.976562 C 135.242188 119.761719 135.242188 120.554688 135.210938 121.355469 C 135.195312 122.15625 135.152344 122.949219 135.160156 123.773438 C 135.144531 125.425781 135.253906 127.101562 135.429688 128.78125 C 135.613281 130.460938 135.921875 132.144531 136.316406 133.816406 C 136.710938 135.488281 137.226562 137.140625 137.855469 138.75 C 139.105469 141.976562 140.777344 145.042969 142.78125 147.789062 C 144.777344 150.546875 147.066406 153.003906 149.46875 155.152344 C 154.289062 159.445312 159.5 162.5 164.101562 164.699219 C 168.71875 166.898438 172.753906 168.261719 175.613281 169.109375 C 177.042969 169.53125 178.183594 169.816406 178.972656 170.003906 C 179.367188 170.097656 179.671875 170.164062 179.882812 170.210938 C 180.105469 170.257812 180.21875 170.277344 180.21875 170.277344 L 180.914062 166.628906 C 180.914062 166.628906 180.824219 166.609375 180.652344 166.578125 C 180.464844 166.535156 180.1875 166.472656 179.824219 166.394531 C 179.09375 166.222656 178.015625 165.957031 176.65625 165.5625 C 173.933594 164.777344 170.0625 163.496094 165.652344 161.441406 C 161.253906 159.386719 156.296875 156.542969 151.746094 152.589844 C 149.476562 150.617188 147.324219 148.363281 145.441406 145.851562 C 143.550781 143.34375 141.96875 140.554688 140.761719 137.609375 C 140.15625 136.136719 139.648438 134.621094 139.25 133.082031 C 138.851562 131.546875 138.527344 129.988281 138.320312 128.425781 C 138.121094 126.859375 137.976562 125.296875 137.949219 123.742188 C 137.921875 122.96875 137.945312 122.171875 137.9375 121.394531 C 137.945312 120.613281 137.921875 119.839844 137.953125 119.074219 C 138.097656 112.929688 138.742188 107.207031 139.671875 102.363281 C 140.609375 97.515625 141.78125 93.546875 142.667969 90.773438 C 142.894531 90.082031 143.09375 89.460938 143.261719 88.914062 C 143.449219 88.375 143.601562 87.914062 143.714844 87.53125 C 143.945312 86.765625 144.03125 86.324219 143.949219 86.261719 " fill-opacity="1" fill-rule="nonzero"/><g clip-path="url(#5fb28eb7b7)"><path fill="#f68833" d="M 143.949219 86.261719 C 144.882812 84.257812 145.898438 82.296875 147.003906 80.382812 C 148.128906 78.480469 149.335938 76.625 150.648438 74.84375 C 151.957031 73.0625 153.371094 71.355469 154.890625 69.746094 C 155.644531 68.9375 156.4375 68.160156 157.253906 67.414062 C 158.070312 66.667969 158.910156 65.945312 159.820312 65.296875 C 159.820312 65.296875 158.984375 65.675781 157.667969 66.375 C 156.347656 67.066406 154.542969 68.082031 152.542969 69.265625 C 152.136719 69.507812 151.628906 69.800781 151.082031 70.175781 C 150.804688 70.359375 150.511719 70.554688 150.210938 70.769531 C 149.914062 70.988281 149.605469 71.222656 149.292969 71.472656 C 148.652344 71.96875 148.03125 72.554688 147.390625 73.179688 C 147.082031 73.503906 146.777344 73.839844 146.476562 74.191406 C 146.324219 74.367188 146.175781 74.542969 146.03125 74.726562 C 145.886719 74.914062 145.75 75.101562 145.613281 75.292969 C 145.339844 75.675781 145.078125 76.070312 144.828125 76.480469 C 144.59375 76.890625 144.371094 77.316406 144.171875 77.75 C 143.753906 78.609375 143.476562 79.535156 143.277344 80.46875 C 143.097656 81.40625 143.054688 82.378906 143.140625 83.34375 C 143.253906 84.320312 143.515625 85.300781 143.949219 86.261719 " fill-opacity="1" fill-rule="nonzero"/><path fill="#f9ae3f" d="M 143.949219 86.261719 C 144.882812 84.257812 145.898438 82.296875 147.003906 80.382812 C 148.128906 78.480469 149.335938 76.625 150.648438 74.84375 C 151.957031 73.0625 153.371094 71.355469 154.890625 69.746094 C 155.644531 68.9375 156.4375 68.160156 157.253906 67.414062 C 158.070312 66.667969 158.910156 65.945312 159.820312 65.296875 C 159.820312 65.296875 159.167969 65.945312 158.328125 67.128906 C 157.480469 68.300781 156.445312 70.003906 155.605469 71.996094 C 155.433594 72.40625 155.222656 72.894531 154.996094 73.460938 C 154.882812 73.746094 154.757812 74.039062 154.625 74.347656 C 154.496094 74.660156 154.359375 74.980469 154.214844 75.3125 C 153.914062 75.964844 153.617188 76.683594 153.253906 77.382812 C 153.082031 77.742188 152.902344 78.105469 152.707031 78.460938 C 152.609375 78.640625 152.507812 78.820312 152.40625 78.996094 C 152.304688 79.179688 152.203125 79.359375 152.097656 79.539062 C 150.386719 82.394531 148.035156 85.066406 143.949219 86.261719 " fill-opacity="1" fill-rule="nonzero"/></g><path fill="#f68833" d="M 138.125 100.457031 C 136.773438 96.207031 135.742188 91.710938 135.152344 86.980469 C 134.5625 82.25 134.386719 77.273438 134.832031 72.121094 C 134.832031 72.121094 134.765625 72.382812 134.640625 72.859375 C 134.519531 73.335938 134.347656 74.023438 134.132812 74.871094 C 133.695312 76.558594 133.152344 78.886719 132.53125 81.417969 C 132.417969 81.9375 132.273438 82.574219 132.132812 83.292969 C 132.0625 83.652344 131.984375 84.03125 131.921875 84.429688 C 131.867188 84.832031 131.8125 85.25 131.761719 85.683594 C 131.667969 86.546875 131.585938 87.460938 131.597656 88.410156 C 131.609375 89.359375 131.632812 90.320312 131.785156 91.285156 C 131.929688 92.25 132.140625 93.199219 132.4375 94.109375 C 132.753906 95.023438 133.167969 95.894531 133.675781 96.695312 C 134.679688 98.296875 136.164062 99.613281 138.125 100.457031 " fill-opacity="1" fill-rule="nonzero"/><path fill="#f9ae3f" d="M 138.125 100.457031 C 136.773438 96.207031 135.742188 91.710938 135.152344 86.980469 C 134.5625 82.25 134.386719 77.273438 134.832031 72.121094 C 134.832031 72.121094 134.859375 72.375 134.902344 72.835938 C 134.945312 73.289062 135.050781 73.957031 135.1875 74.753906 C 135.453125 76.351562 135.960938 78.511719 136.757812 80.738281 C 137.421875 82.578125 138.734375 85.914062 139.488281 89.476562 C 139.65625 90.363281 139.824219 91.28125 139.894531 92.195312 C 139.9375 92.652344 139.949219 93.109375 139.953125 93.566406 C 139.964844 94.03125 139.949219 94.492188 139.910156 94.953125 C 139.875 95.414062 139.808594 95.871094 139.710938 96.328125 C 139.628906 96.789062 139.523438 97.253906 139.378906 97.710938 C 139.234375 98.167969 139.054688 98.625 138.839844 99.082031 C 138.632812 99.539062 138.402344 100 138.125 100.457031 " fill-opacity="1" fill-rule="nonzero"/><path fill="#f68833" d="M 138.210938 112.332031 C 140.894531 108.84375 143.75 105.644531 146.761719 102.816406 C 149.769531 99.992188 152.933594 97.539062 156.175781 95.542969 C 156.175781 95.542969 156.039062 95.671875 155.796875 95.910156 C 155.546875 96.144531 155.21875 96.511719 154.816406 96.972656 C 154.421875 97.433594 153.929688 97.988281 153.460938 98.652344 C 152.984375 99.316406 152.449219 100.050781 151.980469 100.878906 C 151.78125 101.214844 151.539062 101.628906 151.25 102.097656 C 150.960938 102.5625 150.660156 103.097656 150.292969 103.65625 C 150.109375 103.9375 149.914062 104.222656 149.707031 104.515625 C 149.496094 104.808594 149.296875 105.113281 149.074219 105.417969 C 148.632812 106.027344 148.128906 106.644531 147.582031 107.253906 C 147.054688 107.867188 146.464844 108.46875 145.8125 109.027344 C 145.488281 109.308594 145.140625 109.582031 144.789062 109.839844 C 144.441406 110.101562 144.078125 110.351562 143.695312 110.582031 C 142.167969 111.507812 140.351562 112.179688 138.210938 112.332031 " fill-opacity="1" fill-rule="nonzero"/><path fill="#f9ae3f" d="M 138.210938 112.332031 C 140.894531 108.84375 143.75 105.644531 146.761719 102.816406 C 149.769531 99.992188 152.933594 97.539062 156.175781 95.542969 C 156.175781 95.542969 155.984375 95.613281 155.632812 95.742188 C 155.28125 95.867188 154.769531 96.050781 154.148438 96.289062 C 153.507812 96.523438 152.746094 96.804688 151.898438 97.113281 C 151.039062 97.4375 150.097656 97.789062 149.101562 98.160156 C 148.691406 98.3125 148.179688 98.5 147.613281 98.734375 C 147.058594 98.976562 146.4375 99.261719 145.785156 99.601562 C 145.136719 99.945312 144.429688 100.335938 143.761719 100.796875 C 143.09375 101.261719 142.421875 101.785156 141.777344 102.375 C 141.121094 102.957031 140.558594 103.621094 140.027344 104.339844 C 139.761719 104.699219 139.515625 105.074219 139.289062 105.464844 C 139.058594 105.855469 138.878906 106.265625 138.707031 106.683594 C 138.539062 107.105469 138.394531 107.539062 138.277344 107.988281 C 138.160156 108.4375 138.066406 108.894531 138.03125 109.371094 C 137.953125 110.316406 138 111.308594 138.210938 112.332031 " fill-opacity="1" fill-rule="nonzero"/><path fill="#f68833" d="M 135.65625 125.355469 C 135.335938 124.882812 135.054688 124.40625 134.753906 123.917969 C 134.449219 123.421875 134.171875 122.941406 133.894531 122.457031 C 133.335938 121.484375 132.777344 120.5 132.21875 119.5 C 131.679688 118.496094 131.164062 117.480469 130.640625 116.449219 C 130.105469 115.414062 129.628906 114.367188 129.144531 113.304688 C 127.210938 109.046875 125.496094 104.527344 124.179688 99.726562 C 124.179688 99.726562 124.300781 100.765625 124.4375 102.429688 C 124.453125 102.636719 124.46875 102.855469 124.484375 103.082031 C 124.507812 103.308594 124.535156 103.546875 124.558594 103.789062 C 124.601562 104.273438 124.652344 104.796875 124.703125 105.339844 C 124.742188 105.886719 124.789062 106.457031 124.835938 107.050781 C 124.894531 107.640625 124.949219 108.253906 125 108.878906 C 125.039062 109.390625 125.089844 110.015625 125.164062 110.714844 C 125.242188 111.417969 125.371094 112.199219 125.527344 113.027344 C 125.605469 113.4375 125.691406 113.859375 125.792969 114.292969 C 125.886719 114.722656 126 115.160156 126.140625 115.597656 C 126.414062 116.476562 126.738281 117.363281 127.125 118.226562 C 127.5 119.09375 127.980469 119.925781 128.523438 120.707031 C 129.066406 121.484375 129.683594 122.203125 130.375 122.835938 C 130.550781 122.992188 130.726562 123.144531 130.910156 123.292969 C 131.097656 123.4375 131.292969 123.59375 131.492188 123.734375 C 131.886719 124.015625 132.304688 124.269531 132.746094 124.484375 C 133.625 124.917969 134.585938 125.214844 135.65625 125.355469 " fill-opacity="1" fill-rule="nonzero"/><path fill="#f9ae3f" d="M 135.65625 125.355469 C 135.335938 124.882812 135.054688 124.40625 134.753906 123.917969 C 134.449219 123.421875 134.171875 122.941406 133.894531 122.457031 C 133.335938 121.484375 132.777344 120.5 132.21875 119.5 C 131.679688 118.496094 131.164062 117.480469 130.640625 116.449219 C 130.105469 115.414062 129.628906 114.367188 129.144531 113.304688 C 127.210938 109.046875 125.496094 104.527344 124.179688 99.726562 C 124.179688 99.726562 124.613281 100.636719 125.394531 102.011719 C 126.152344 103.386719 127.363281 105.210938 128.796875 107.042969 C 129.371094 107.789062 130.28125 108.855469 131.210938 110.121094 C 131.6875 110.757812 132.144531 111.441406 132.636719 112.164062 C 133.121094 112.890625 133.59375 113.65625 134.019531 114.449219 C 134.234375 114.847656 134.429688 115.253906 134.621094 115.667969 C 134.820312 116.078125 135.007812 116.5 135.175781 116.925781 C 135.511719 117.78125 135.765625 118.660156 135.929688 119.566406 C 136.117188 120.472656 136.199219 121.402344 136.152344 122.363281 C 136.089844 123.316406 135.945312 124.3125 135.65625 125.355469 " fill-opacity="1" fill-rule="nonzero"/><path fill="#f68833" d="M 139.851562 136.421875 C 140.792969 132.1875 142.480469 128.457031 144.613281 125.238281 C 144.871094 124.835938 145.148438 124.441406 145.429688 124.050781 C 145.710938 123.660156 145.980469 123.304688 146.28125 122.847656 C 146.867188 121.984375 147.453125 121.136719 148.039062 120.304688 C 148.324219 119.886719 148.636719 119.476562 148.945312 119.070312 L 149.867188 117.863281 L 150.785156 116.679688 L 151.75 115.53125 C 151.75 115.53125 151.65625 115.707031 151.488281 116.023438 C 151.320312 116.339844 151.085938 116.804688 150.839844 117.398438 C 150.585938 117.988281 150.292969 118.699219 149.988281 119.5 C 149.683594 120.304688 149.425781 121.210938 149.152344 122.175781 C 149.097656 122.371094 149.035156 122.59375 148.96875 122.832031 C 148.902344 123.066406 148.824219 123.34375 148.757812 123.550781 C 148.617188 124 148.421875 124.519531 148.238281 125.0625 C 147.828125 126.164062 147.359375 127.402344 146.703125 128.714844 C 146.039062 130.027344 145.265625 131.390625 144.164062 132.738281 C 143.632812 133.40625 143.011719 134.066406 142.300781 134.691406 C 141.59375 135.3125 140.789062 135.90625 139.851562 136.421875 " fill-opacity="1" fill-rule="nonzero"/><path fill="#f9ae3f" d="M 139.851562 136.421875 C 140.792969 132.1875 142.480469 128.457031 144.613281 125.238281 C 144.871094 124.835938 145.148438 124.441406 145.429688 124.050781 C 145.710938 123.660156 145.980469 123.304688 146.28125 122.847656 C 146.867188 121.984375 147.453125 121.136719 148.039062 120.304688 C 148.324219 119.886719 148.636719 119.476562 148.945312 119.070312 L 149.867188 117.863281 L 150.785156 116.679688 L 151.75 115.53125 C 151.75 115.53125 151.585938 115.664062 151.285156 115.898438 C 150.988281 116.136719 150.535156 116.472656 150 116.898438 C 149.464844 117.328125 148.816406 117.832031 148.082031 118.394531 C 147.335938 118.957031 146.515625 119.574219 145.652344 120.222656 C 144.949219 120.753906 143.925781 121.53125 142.828125 122.546875 C 142.554688 122.800781 142.273438 123.070312 141.996094 123.351562 C 141.726562 123.613281 141.457031 123.894531 141.191406 124.191406 C 140.644531 124.785156 140.15625 125.441406 139.707031 126.164062 C 138.832031 127.601562 138.1875 129.304688 138.132812 131.101562 C 138.070312 132.894531 138.574219 134.789062 139.851562 136.421875 " fill-opacity="1" fill-rule="nonzero"/><g clip-path="url(#7688c475a2)"><path fill="#f68833" d="M 144.4375 148.792969 C 140.214844 147.203125 136 144.746094 132.152344 141.351562 C 130.230469 139.660156 128.398438 137.742188 126.714844 135.632812 C 125.03125 133.527344 123.488281 131.230469 122.109375 128.804688 C 122.109375 128.804688 122.214844 129.082031 122.402344 129.582031 C 122.582031 130.082031 122.890625 130.8125 123.238281 131.699219 C 123.964844 133.480469 125.011719 135.921875 126.324219 138.542969 C 126.457031 138.808594 126.609375 139.105469 126.769531 139.429688 C 126.9375 139.75 127.132812 140.085938 127.335938 140.445312 C 127.738281 141.164062 128.242188 141.9375 128.796875 142.738281 C 129.9375 144.324219 131.394531 145.957031 133.089844 147.242188 C 134.773438 148.535156 136.699219 149.457031 138.640625 149.777344 C 139.617188 149.933594 140.589844 149.949219 141.566406 149.785156 C 142.539062 149.625 143.492188 149.304688 144.4375 148.792969 " fill-opacity="1" fill-rule="nonzero"/></g><g clip-path="url(#62742539bb)"><path fill="#f9ae3f" d="M 144.4375 148.792969 C 140.214844 147.203125 136 144.746094 132.152344 141.351562 C 130.230469 139.660156 128.398438 137.742188 126.714844 135.632812 C 125.03125 133.527344 123.488281 131.230469 122.109375 128.804688 C 122.109375 128.804688 122.28125 129.019531 122.597656 129.390625 C 122.910156 129.761719 123.390625 130.292969 123.996094 130.910156 C 125.1875 132.140625 126.96875 133.707031 129.03125 135.0625 C 129.894531 135.613281 131.117188 136.378906 132.53125 137.257812 C 133.21875 137.703125 133.992188 138.164062 134.738281 138.664062 C 135.117188 138.910156 135.507812 139.160156 135.890625 139.421875 C 136.269531 139.679688 136.65625 139.945312 137.042969 140.214844 C 138.574219 141.300781 140.054688 142.46875 141.332031 143.832031 C 142.609375 145.203125 143.664062 146.777344 144.4375 148.792969 " fill-opacity="1" fill-rule="nonzero"/></g><path fill="#f68833" d="M 154.308594 155.445312 C 152.722656 151.382812 151.785156 147.289062 151.617188 143.460938 C 151.441406 139.628906 152.058594 136.09375 153.300781 133.09375 C 153.300781 133.09375 153.28125 133.246094 153.246094 133.515625 C 153.230469 133.652344 153.207031 133.820312 153.195312 134.015625 C 153.1875 134.210938 153.179688 134.429688 153.167969 134.675781 C 153.148438 135.660156 153.242188 137.050781 153.671875 138.574219 C 154.007812 139.824219 154.832031 142.152344 155.394531 145.09375 C 155.667969 146.566406 155.867188 148.199219 155.769531 149.945312 C 155.671875 151.6875 155.292969 153.550781 154.308594 155.445312 " fill-opacity="1" fill-rule="nonzero"/><path fill="#f9ae3f" d="M 154.308594 155.445312 C 152.722656 151.382812 151.785156 147.289062 151.617188 143.460938 C 151.441406 139.628906 152.058594 136.09375 153.300781 133.09375 C 153.300781 133.09375 153.199219 133.25 153.019531 133.527344 C 152.839844 133.808594 152.5625 134.226562 152.25 134.75 C 151.597656 135.808594 150.761719 137.332031 149.875 139.179688 C 149.699219 139.554688 149.488281 140.019531 149.265625 140.566406 C 149.054688 141.105469 148.84375 141.726562 148.652344 142.414062 C 148.292969 143.769531 148.054688 145.398438 148.191406 147.082031 C 148.328125 148.761719 148.835938 150.503906 149.835938 152.007812 C 150.835938 153.511719 152.324219 154.777344 154.308594 155.445312 " fill-opacity="1" fill-rule="nonzero"/><path fill="#f68833" d="M 164.496094 163.933594 C 160.035156 164.347656 155.363281 164.359375 150.507812 163.722656 C 145.660156 163.082031 140.597656 161.796875 135.515625 159.511719 C 135.515625 159.511719 136.507812 160.164062 138.101562 161.15625 C 139.699219 162.148438 141.902344 163.4375 144.316406 164.753906 C 145.304688 165.292969 146.738281 166.042969 148.429688 166.683594 C 150.125 167.328125 152.074219 167.863281 154.054688 168.054688 C 156.035156 168.246094 158.039062 168.097656 159.84375 167.453125 C 161.65625 166.804688 163.253906 165.667969 164.496094 163.933594 " fill-opacity="1" fill-rule="nonzero"/><path fill="#f9ae3f" d="M 164.496094 163.933594 C 160.035156 164.347656 155.363281 164.359375 150.507812 163.722656 C 145.660156 163.082031 140.597656 161.796875 135.515625 159.511719 C 135.515625 159.511719 135.777344 159.585938 136.253906 159.699219 C 136.734375 159.804688 137.421875 159.949219 138.257812 160.089844 C 139.945312 160.355469 142.238281 160.570312 144.667969 160.445312 C 145.164062 160.414062 145.765625 160.378906 146.453125 160.335938 C 147.136719 160.292969 147.898438 160.242188 148.707031 160.203125 C 150.335938 160.117188 152.15625 160.054688 153.996094 160.132812 C 155.835938 160.214844 157.699219 160.441406 159.472656 161 C 161.246094 161.5625 162.929688 162.464844 164.496094 163.933594 " fill-opacity="1" fill-rule="nonzero"/><path fill="#f68833" d="M 176.207031 166.191406 C 173.273438 162.9375 170.71875 159.515625 168.621094 156.015625 C 166.519531 152.523438 164.890625 148.941406 163.898438 145.457031 C 163.898438 145.457031 163.976562 145.613281 164.144531 145.890625 C 164.304688 146.164062 164.546875 146.5625 164.878906 147.039062 C 165.535156 147.996094 166.546875 149.289062 167.894531 150.5625 C 168.984375 151.613281 171.164062 153.511719 173.085938 156.085938 C 174.042969 157.375 174.929688 158.84375 175.53125 160.519531 C 176.132812 162.191406 176.453125 164.070312 176.207031 166.191406 " fill-opacity="1" fill-rule="nonzero"/><path fill="#f9ae3f" d="M 176.207031 166.191406 C 173.273438 162.9375 170.71875 159.515625 168.621094 156.015625 C 166.519531 152.523438 164.890625 148.941406 163.898438 145.457031 C 163.898438 145.457031 163.964844 146.253906 164.074219 147.542969 C 164.1875 148.851562 164.390625 150.683594 164.648438 152.789062 C 164.75 153.648438 164.917969 154.894531 165.296875 156.304688 C 165.667969 157.714844 166.25 159.289062 167.140625 160.769531 C 168.027344 162.246094 169.222656 163.628906 170.742188 164.636719 C 172.257812 165.632812 174.105469 166.257812 176.207031 166.191406 " fill-opacity="1" fill-rule="nonzero"/><path fill="#f68833" d="M 231.332031 86.339844 C 231.253906 86.398438 231.339844 86.839844 231.566406 87.601562 C 231.683594 87.984375 231.832031 88.445312 232.019531 88.984375 C 232.1875 89.527344 232.386719 90.148438 232.613281 90.835938 C 233.496094 93.605469 234.664062 97.566406 235.597656 102.398438 C 236.527344 107.234375 237.171875 112.945312 237.3125 119.078125 C 237.34375 119.84375 237.324219 120.617188 237.328125 121.398438 C 237.324219 122.171875 237.347656 122.96875 237.316406 123.742188 C 237.289062 125.289062 237.148438 126.84375 236.945312 128.402344 C 236.742188 129.960938 236.421875 131.507812 236.023438 133.039062 C 235.625 134.570312 235.121094 136.078125 234.515625 137.542969 C 233.316406 140.472656 231.742188 143.25 229.859375 145.746094 C 227.984375 148.246094 225.839844 150.488281 223.582031 152.457031 C 219.046875 156.390625 214.105469 159.230469 209.71875 161.28125 C 205.320312 163.328125 201.457031 164.609375 198.742188 165.390625 C 197.382812 165.785156 196.308594 166.050781 195.582031 166.21875 C 195.222656 166.296875 194.945312 166.359375 194.757812 166.398438 C 194.585938 166.433594 194.5 166.453125 194.5 166.453125 L 195.195312 170.101562 C 195.195312 170.101562 195.308594 170.078125 195.527344 170.035156 C 195.734375 169.988281 196.039062 169.917969 196.433594 169.828125 C 197.21875 169.644531 198.359375 169.355469 199.785156 168.933594 C 202.636719 168.09375 206.664062 166.730469 211.269531 164.539062 C 215.859375 162.34375 221.054688 159.296875 225.859375 155.015625 C 228.253906 152.878906 230.535156 150.429688 232.523438 147.683594 C 234.519531 144.945312 236.183594 141.894531 237.425781 138.6875 C 238.050781 137.082031 238.5625 135.4375 238.957031 133.773438 C 239.351562 132.109375 239.65625 130.433594 239.835938 128.757812 C 240.011719 127.082031 240.121094 125.417969 240.105469 123.773438 C 240.113281 122.949219 240.070312 122.15625 240.054688 121.355469 C 240.023438 120.558594 240.023438 119.765625 239.96875 118.980469 C 239.632812 112.703125 238.753906 106.871094 237.554688 101.976562 C 236.347656 97.082031 234.871094 93.128906 233.664062 90.4375 C 233.355469 89.765625 233.074219 89.167969 232.820312 88.652344 C 232.550781 88.144531 232.316406 87.710938 232.113281 87.363281 C 231.710938 86.667969 231.445312 86.3125 231.332031 86.339844 " fill-opacity="1" fill-rule="nonzero"/><g clip-path="url(#bc3334d4aa)"><path fill="#f68833" d="M 231.332031 86.339844 C 230.40625 84.339844 229.390625 82.382812 228.289062 80.472656 C 227.167969 78.574219 225.960938 76.726562 224.65625 74.953125 C 223.347656 73.175781 221.941406 71.472656 220.425781 69.871094 C 219.671875 69.0625 218.886719 68.292969 218.074219 67.546875 C 217.261719 66.804688 216.417969 66.082031 215.527344 65.445312 C 215.527344 65.445312 215.6875 65.601562 215.949219 65.914062 C 216.214844 66.21875 216.585938 66.675781 217.003906 67.261719 C 217.84375 68.429688 218.871094 70.128906 219.707031 72.117188 C 219.878906 72.523438 220.089844 73.011719 220.3125 73.578125 C 220.429688 73.859375 220.550781 74.152344 220.683594 74.460938 C 220.808594 74.769531 220.945312 75.09375 221.089844 75.421875 C 221.390625 76.074219 221.683594 76.789062 222.046875 77.488281 C 222.21875 77.847656 222.398438 78.207031 222.59375 78.5625 C 222.691406 78.742188 222.789062 78.917969 222.894531 79.097656 C 222.992188 79.277344 223.09375 79.457031 223.199219 79.636719 C 224.90625 82.484375 227.25 85.148438 231.332031 86.339844 " fill-opacity="1" fill-rule="nonzero"/></g><g clip-path="url(#bba76b3870)"><path fill="#f9ae3f" d="M 231.332031 86.339844 C 230.40625 84.339844 229.390625 82.382812 228.289062 80.472656 C 227.167969 78.574219 225.960938 76.726562 224.65625 74.953125 C 223.347656 73.175781 221.941406 71.472656 220.425781 69.871094 C 219.671875 69.0625 218.886719 68.292969 218.074219 67.546875 C 217.261719 66.804688 216.417969 66.082031 215.527344 65.445312 C 215.527344 65.445312 216.351562 65.816406 217.660156 66.507812 C 218.976562 67.195312 220.777344 68.207031 222.769531 69.386719 C 223.175781 69.628906 223.683594 69.921875 224.226562 70.289062 C 224.503906 70.472656 224.796875 70.671875 225.097656 70.882812 C 225.394531 71.101562 225.699219 71.335938 226.011719 71.585938 C 226.652344 72.074219 227.273438 72.660156 227.914062 73.285156 C 228.21875 73.605469 228.523438 73.945312 228.824219 74.292969 C 228.972656 74.46875 229.125 74.644531 229.269531 74.828125 C 229.410156 75.011719 229.546875 75.199219 229.683594 75.390625 C 229.957031 75.773438 230.21875 76.167969 230.464844 76.574219 C 230.699219 76.988281 230.921875 77.410156 231.121094 77.839844 C 231.539062 78.699219 231.8125 79.625 232.011719 80.554688 C 232.191406 81.492188 232.230469 82.460938 232.144531 83.421875 C 232.03125 84.398438 231.769531 85.378906 231.332031 86.339844 " fill-opacity="1" fill-rule="nonzero"/></g><path fill="#f68833" d="M 235.308594 100.929688 C 229.132812 94.707031 222.203125 89.921875 215.230469 87.269531 C 215.230469 87.269531 215.382812 87.371094 215.660156 87.554688 C 215.933594 87.742188 216.308594 88.03125 216.777344 88.398438 C 217.714844 89.136719 218.929688 90.265625 220.148438 91.683594 C 220.390625 91.980469 220.683594 92.34375 221.03125 92.753906 C 221.207031 92.957031 221.394531 93.171875 221.589844 93.398438 C 221.78125 93.625 221.984375 93.863281 222.203125 94.109375 C 222.636719 94.597656 223.136719 95.105469 223.648438 95.636719 C 224.164062 96.164062 224.761719 96.683594 225.367188 97.207031 C 225.976562 97.726562 226.644531 98.226562 227.367188 98.683594 C 228.078125 99.144531 228.835938 99.570312 229.660156 99.917969 C 231.324219 100.613281 233.167969 101.054688 235.308594 100.929688 " fill-opacity="1" fill-rule="nonzero"/><path fill="#f9ae3f" d="M 235.308594 100.929688 C 229.132812 94.707031 222.203125 89.921875 215.230469 87.269531 C 215.230469 87.269531 215.429688 87.304688 215.792969 87.363281 C 216.160156 87.417969 216.671875 87.515625 217.328125 87.628906 C 218.648438 87.847656 220.476562 88.195312 222.578125 88.589844 C 223.003906 88.675781 223.527344 88.78125 224.121094 88.921875 C 224.710938 89.0625 225.382812 89.234375 226.066406 89.46875 C 226.757812 89.703125 227.492188 89.988281 228.238281 90.335938 C 228.976562 90.683594 229.707031 91.105469 230.429688 91.585938 C 231.160156 92.066406 231.820312 92.636719 232.445312 93.269531 C 232.757812 93.589844 233.058594 93.921875 233.332031 94.277344 C 233.601562 94.636719 233.851562 95.011719 234.078125 95.402344 C 234.308594 95.796875 234.515625 96.207031 234.695312 96.632812 C 234.863281 97.0625 235 97.511719 235.105469 97.972656 C 235.214844 98.4375 235.292969 98.914062 235.335938 99.40625 C 235.371094 99.898438 235.355469 100.410156 235.308594 100.929688 " fill-opacity="1" fill-rule="nonzero"/><path fill="#f68833" d="M 239.296875 112.121094 C 243.039062 104.058594 245.878906 94.980469 246.855469 84.863281 C 246.855469 84.863281 247.167969 89.050781 247.550781 94.222656 C 247.742188 96.300781 247.886719 100.257812 246.816406 103.9375 C 246.53125 104.859375 246.183594 105.761719 245.753906 106.613281 C 245.539062 107.039062 245.3125 107.449219 245.050781 107.847656 C 244.78125 108.242188 244.496094 108.625 244.183594 108.984375 C 242.945312 110.425781 241.351562 111.535156 239.296875 112.121094 " fill-opacity="1" fill-rule="nonzero"/><path fill="#f9ae3f" d="M 239.292969 112.121094 C 243.039062 104.058594 245.878906 94.980469 246.855469 84.863281 C 246.855469 84.863281 246.785156 85.109375 246.660156 85.546875 C 246.53125 85.980469 246.339844 86.601562 246.054688 87.359375 C 245.773438 88.113281 245.425781 88.992188 245.011719 89.941406 C 244.59375 90.886719 244.070312 91.910156 243.5 92.933594 C 243.269531 93.351562 242.984375 93.863281 242.660156 94.441406 C 242.328125 95.023438 241.960938 95.671875 241.59375 96.375 C 241.21875 97.078125 240.863281 97.828125 240.488281 98.621094 C 240.113281 99.414062 239.757812 100.242188 239.453125 101.09375 C 239.160156 101.941406 238.851562 102.824219 238.648438 103.714844 C 238.546875 104.160156 238.460938 104.609375 238.398438 105.0625 C 238.339844 105.515625 238.273438 105.976562 238.246094 106.4375 C 238.21875 106.898438 238.214844 107.363281 238.246094 107.828125 C 238.273438 108.296875 238.335938 108.765625 238.40625 109.238281 C 238.554688 110.1875 238.84375 111.144531 239.292969 112.121094 " fill-opacity="1" fill-rule="nonzero"/><path fill="#f68833" d="M 237.726562 125.261719 C 237.46875 124.785156 237.175781 124.320312 236.90625 123.863281 C 236.636719 123.410156 236.335938 122.945312 236.042969 122.488281 C 235.457031 121.566406 234.871094 120.664062 234.285156 119.773438 C 233.675781 118.882812 233.050781 118.015625 232.433594 117.15625 C 231.832031 116.296875 231.171875 115.464844 230.527344 114.644531 C 227.941406 111.367188 225.210938 108.375 222.304688 105.777344 C 222.304688 105.777344 222.753906 106.402344 223.421875 107.46875 C 223.507812 107.601562 223.59375 107.742188 223.683594 107.890625 C 223.769531 108.039062 223.855469 108.195312 223.945312 108.359375 C 224.121094 108.683594 224.308594 109.035156 224.5 109.40625 C 224.691406 109.78125 224.894531 110.175781 225.089844 110.589844 C 225.273438 111.011719 225.457031 111.449219 225.640625 111.90625 C 225.789062 112.277344 225.96875 112.734375 226.191406 113.25 C 226.402344 113.769531 226.628906 114.355469 226.914062 114.976562 C 227.054688 115.285156 227.207031 115.605469 227.371094 115.933594 C 227.539062 116.261719 227.707031 116.59375 227.882812 116.9375 C 228.234375 117.617188 228.636719 118.3125 229.101562 119 C 229.574219 119.6875 230.0625 120.371094 230.625 121.023438 C 231.191406 121.675781 231.824219 122.296875 232.539062 122.859375 C 232.714844 123 232.898438 123.136719 233.085938 123.269531 C 233.273438 123.402344 233.457031 123.511719 233.652344 123.632812 C 234.039062 123.863281 234.445312 124.082031 234.875 124.285156 C 235.738281 124.691406 236.6875 125.03125 237.726562 125.261719 " fill-opacity="1" fill-rule="nonzero"/><path fill="#f9ae3f" d="M 237.726562 125.261719 C 237.46875 124.785156 237.175781 124.320312 236.90625 123.863281 C 236.636719 123.410156 236.335938 122.945312 236.042969 122.488281 C 235.457031 121.566406 234.871094 120.664062 234.285156 119.773438 C 233.675781 118.882812 233.050781 118.015625 232.433594 117.15625 C 231.832031 116.296875 231.171875 115.464844 230.527344 114.644531 C 227.941406 111.367188 225.210938 108.375 222.304688 105.777344 C 222.304688 105.777344 223 106.207031 224.1875 106.890625 C 225.390625 107.566406 226.992188 108.542969 228.894531 109.601562 C 229.683594 110.035156 230.753906 110.683594 231.960938 111.5625 C 232.550781 112 233.199219 112.496094 233.785156 113.054688 C 234.382812 113.617188 234.972656 114.234375 235.523438 114.910156 C 235.800781 115.25 236.070312 115.601562 236.316406 115.96875 C 236.558594 116.335938 236.78125 116.714844 236.992188 117.109375 C 237.402344 117.894531 237.757812 118.734375 237.992188 119.613281 C 238.40625 121.367188 238.480469 123.324219 237.726562 125.261719 " fill-opacity="1" fill-rule="nonzero"/><g clip-path="url(#e37d7ffb6e)"><path fill="#f68833" d="M 237.546875 137.105469 C 241.007812 134.199219 244.128906 130.421875 246.644531 126.089844 C 246.96875 125.546875 247.269531 125 247.566406 124.441406 C 247.863281 123.886719 248.167969 123.300781 248.441406 122.808594 C 249 121.78125 249.558594 120.738281 250.113281 119.679688 C 250.398438 119.152344 250.65625 118.617188 250.917969 118.082031 L 251.695312 116.453125 L 252.472656 114.804688 L 253.195312 113.128906 C 253.195312 113.128906 253.136719 113.378906 253.035156 113.828125 C 252.9375 114.277344 252.800781 114.929688 252.609375 115.730469 C 252.421875 116.53125 252.214844 117.480469 252.003906 118.535156 C 251.789062 119.589844 251.515625 120.742188 251.289062 121.953125 C 251.242188 122.199219 251.1875 122.472656 251.128906 122.773438 C 251.0625 123.085938 250.992188 123.425781 250.917969 123.785156 C 250.742188 124.5625 250.558594 125.414062 250.265625 126.320312 C 249.726562 128.121094 248.875 130.097656 247.726562 131.855469 C 246.582031 133.613281 245.066406 135.136719 243.355469 136.097656 C 242.480469 136.574219 241.5625 136.914062 240.597656 137.089844 C 239.621094 137.261719 238.605469 137.273438 237.546875 137.105469 " fill-opacity="1" fill-rule="nonzero"/><path fill="#f9ae3f" d="M 237.546875 137.105469 C 241.007812 134.199219 244.128906 130.421875 246.644531 126.089844 C 246.96875 125.546875 247.269531 125 247.566406 124.441406 C 247.863281 123.886719 248.167969 123.300781 248.441406 122.808594 C 249 121.78125 249.558594 120.738281 250.113281 119.679688 C 250.398438 119.152344 250.65625 118.617188 250.917969 118.082031 L 251.695312 116.453125 L 252.472656 114.804688 L 253.195312 113.128906 C 253.195312 113.128906 253.058594 113.332031 252.8125 113.699219 C 252.554688 114.0625 252.207031 114.585938 251.71875 115.207031 C 251.234375 115.828125 250.648438 116.554688 249.980469 117.324219 C 249.648438 117.710938 249.292969 118.109375 248.917969 118.511719 C 248.546875 118.914062 248.152344 119.324219 247.726562 119.730469 C 247.042969 120.394531 246.042969 121.34375 244.980469 122.488281 C 244.710938 122.773438 244.441406 123.070312 244.171875 123.382812 C 243.886719 123.714844 243.605469 124.054688 243.324219 124.402344 C 242.773438 125.097656 242.1875 125.828125 241.652344 126.578125 C 240.546875 128.085938 239.5625 129.679688 238.8125 131.390625 C 238.070312 133.105469 237.605469 134.941406 237.546875 137.105469 " fill-opacity="1" fill-rule="nonzero"/></g><path fill="#f68833" d="M 229.394531 147.511719 C 229.925781 143.203125 229.621094 139.078125 228.613281 135.457031 C 227.617188 131.824219 225.929688 128.691406 223.875 126.019531 C 223.875 126.019531 224.160156 126.597656 224.46875 127.570312 C 224.773438 128.539062 225.105469 129.914062 225.164062 131.464844 C 225.167969 131.625 225.175781 131.800781 225.183594 131.996094 C 225.191406 132.1875 225.1875 132.394531 225.195312 132.617188 C 225.214844 133.066406 225.210938 133.566406 225.242188 134.121094 C 225.277344 135.226562 225.351562 136.523438 225.53125 137.957031 C 225.71875 139.394531 225.992188 140.957031 226.558594 142.589844 C 226.839844 143.402344 227.203125 144.238281 227.65625 145.0625 C 228.113281 145.886719 228.6875 146.71875 229.394531 147.511719 " fill-opacity="1" fill-rule="nonzero"/><path fill="#f9ae3f" d="M 229.394531 147.511719 C 229.925781 143.203125 229.621094 139.078125 228.613281 135.457031 C 227.617188 131.824219 225.929688 128.691406 223.875 126.019531 C 223.875 126.019531 224.019531 126.144531 224.273438 126.371094 C 224.539062 126.601562 224.90625 126.929688 225.367188 127.351562 C 225.597656 127.566406 225.851562 127.804688 226.125 128.058594 C 226.394531 128.320312 226.683594 128.597656 226.988281 128.890625 C 227.140625 129.042969 227.296875 129.199219 227.460938 129.355469 C 227.617188 129.515625 227.777344 129.679688 227.941406 129.847656 C 228.269531 130.191406 228.613281 130.550781 228.964844 130.917969 C 229.523438 131.523438 230.351562 132.433594 231.109375 133.617188 C 231.503906 134.214844 231.847656 134.867188 232.183594 135.589844 C 232.34375 135.953125 232.484375 136.320312 232.617188 136.710938 C 232.683594 136.902344 232.746094 137.101562 232.804688 137.300781 C 232.859375 137.5 232.910156 137.699219 232.953125 137.90625 C 233.328125 139.539062 233.351562 141.347656 232.800781 143.0625 C 232.257812 144.773438 231.148438 146.390625 229.394531 147.511719 " fill-opacity="1" fill-rule="nonzero"/><path fill="#f68833" d="M 222.394531 157.082031 C 226.859375 156.570312 231.488281 155.4375 236.121094 153.398438 C 240.738281 151.363281 245.34375 148.371094 249.488281 144.375 C 249.488281 144.375 249.300781 144.617188 248.960938 145.054688 C 248.792969 145.269531 248.585938 145.535156 248.34375 145.847656 C 248.097656 146.148438 247.820312 146.496094 247.507812 146.875 C 246.269531 148.394531 244.507812 150.421875 242.484375 152.503906 C 241.660156 153.359375 240.4375 154.554688 238.914062 155.699219 C 237.394531 156.847656 235.570312 157.949219 233.632812 158.660156 C 231.695312 159.378906 229.652344 159.726562 227.722656 159.515625 C 225.785156 159.300781 223.96875 158.523438 222.394531 157.082031 " fill-opacity="1" fill-rule="nonzero"/><path fill="#f9ae3f" d="M 222.394531 157.082031 C 226.859375 156.570312 231.488281 155.4375 236.121094 153.398438 C 240.738281 151.363281 245.34375 148.371094 249.488281 144.375 C 249.488281 144.375 249.257812 144.539062 248.832031 144.808594 C 248.410156 145.082031 247.808594 145.46875 247.03125 145.882812 C 245.507812 146.734375 243.332031 147.710938 240.949219 148.382812 C 240.460938 148.511719 239.863281 148.667969 239.1875 148.847656 C 238.507812 149.019531 237.753906 149.207031 236.957031 149.417969 C 235.347656 149.824219 233.5625 150.300781 231.789062 150.875 C 230.011719 151.453125 228.261719 152.144531 226.667969 153.105469 C 225.066406 154.074219 223.632812 155.320312 222.394531 157.082031 " fill-opacity="1" fill-rule="nonzero"/><path fill="#f68833" d="M 210.066406 162.070312 C 212.464844 158.410156 214.421875 154.636719 215.757812 150.882812 C 217.097656 147.136719 217.800781 143.417969 217.738281 140.023438 C 217.738281 140.023438 217.621094 140.65625 217.265625 141.660156 C 216.914062 142.664062 216.292969 144.046875 215.320312 145.484375 C 214.539062 146.667969 212.882812 148.828125 211.484375 151.640625 C 210.789062 153.046875 210.167969 154.625 209.847656 156.371094 C 209.523438 158.105469 209.496094 160.019531 210.066406 162.070312 " fill-opacity="1" fill-rule="nonzero"/><path fill="#f9ae3f" d="M 210.066406 162.070312 C 212.464844 158.410156 214.421875 154.636719 215.757812 150.882812 C 217.097656 147.136719 217.800781 143.417969 217.738281 140.023438 C 217.738281 140.023438 217.78125 140.207031 217.851562 140.546875 C 217.921875 140.890625 218.019531 141.386719 218.140625 142 C 218.363281 143.242188 218.640625 145.019531 218.867188 147.089844 C 218.914062 147.511719 218.960938 148.03125 218.996094 148.625 C 219.03125 149.21875 219.035156 149.886719 219.003906 150.609375 C 218.929688 152.039062 218.675781 153.683594 218.078125 155.289062 C 217.484375 156.890625 216.546875 158.457031 215.210938 159.6875 C 213.878906 160.917969 212.152344 161.820312 210.066406 162.070312 " fill-opacity="1" fill-rule="nonzero"/><path fill="#f68833" d="M 199.832031 168.164062 C 204.179688 169.257812 208.753906 169.996094 213.539062 170.289062 C 215.933594 170.4375 218.378906 170.46875 220.882812 170.355469 C 223.386719 170.242188 225.949219 169.996094 228.5625 169.5625 C 228.5625 169.5625 227.507812 169.914062 225.808594 170.480469 C 224.117188 171.035156 221.804688 171.769531 219.289062 172.527344 C 218.257812 172.847656 216.769531 173.273438 215.046875 173.574219 C 213.324219 173.878906 211.371094 174.050781 209.421875 173.898438 C 207.476562 173.75 205.546875 173.277344 203.871094 172.355469 C 202.199219 171.4375 200.789062 170.066406 199.832031 168.164062 " fill-opacity="1" fill-rule="nonzero"/><path fill="#f9ae3f" d="M 199.832031 168.164062 C 204.179688 169.257812 208.753906 169.996094 213.539062 170.289062 C 215.933594 170.4375 218.378906 170.46875 220.882812 170.355469 C 223.386719 170.242188 225.949219 169.996094 228.5625 169.5625 C 228.5625 169.5625 227.503906 169.570312 225.863281 169.421875 C 224.222656 169.273438 222.011719 168.933594 219.714844 168.285156 C 218.773438 168.023438 217.433594 167.617188 215.882812 167.207031 C 214.332031 166.796875 212.578125 166.386719 210.765625 166.132812 C 208.953125 165.878906 207.085938 165.785156 205.25 166.054688 C 203.410156 166.320312 201.605469 166.953125 199.832031 168.164062 " fill-opacity="1" fill-rule="nonzero"/></svg>